<?xml version="1.0" encoding="UTF-8"?>
<svg width="1080px" height="1080px" viewBox="0 0 1080 1080" version="1.1" xmlns="http://www.w3.org/2000/svg" xmlns:xlink="http://www.w3.org/1999/xlink">
    <title>Post</title>
    <g id="Post" stroke="none" stroke-width="1" fill="none" fill-rule="evenodd">
        <g id="skale_logo" transform="translate(0.000000, 66.000000)" fill="#FFFFFF" fill-rule="nonzero">
            <polygon id="Path" points="0 0 0 949 878 949 878 842.628272 105.1471 842.628272 105.1471 106.370337 878 106.370337 878 0"></polygon>
            <path d="M965.001617,363.724847 C965.001617,341.127292 956.268691,321.477486 938.797269,304.778219 C921.331416,288.073374 897.070812,279.720952 865.528128,279.720952 C838.84202,279.720952 817.976007,285.125624 802.451114,296.425796 C786.923436,307.72318 779.159597,322.461929 779.159597,341.127292 C779.159597,350.952195 781.100557,359.795444 784.979692,367.654251 C788.861611,375.515846 795.171819,382.393 804.389289,388.779326 C813.609544,395.165652 825.739846,400.570325 841.267524,405.481382 C856.310658,410.392439 875.720255,414.815458 899.008987,419.235688 C957.722322,430.045033 1002.3644,448.21957 1033.41975,473.27126 C1064.47232,498.816565 1080,536.152869 1080,585.765422 L1080,595.593113 C1080,622.120072 1075.14899,645.699281 1065.92874,667.315183 C1056.70848,688.43747 1043.12455,706.614795 1025.65591,721.841582 C1008.18449,737.071157 986.836718,748.368541 961.604242,756.720963 C936.371765,764.57977 908.229242,769 876.689342,769 C839.811108,769 807.786665,763.598116 779.644141,753.282386 C751.501617,742.966657 728.210101,728.227908 709.769591,709.559756 C691.331866,690.894392 676.77606,669.278491 667.555806,644.224012 C657.851007,619.172323 653,591.66371 653,562.189001 L653,557.275155 L758.293584,557.275155 C758.293584,591.170094 767.998383,618.190669 787.40798,638.822128 C806.817577,658.962761 836.90106,669.278491 878.145758,669.278491 C910.170201,669.278491 933.946262,662.401337 949.47394,648.156204 C965.001617,633.908282 972.765456,617.209015 972.765456,598.050036 C972.765456,588.71596 971.30904,580.363538 967.911665,571.523077 C964.514289,563.170655 959.178738,555.802675 950.930356,548.925522 C943.166517,542.048369 932.005302,536.152869 917.93404,530.748197 C903.862778,525.343524 886.394141,520.923294 865.046369,516.99389 C836.90106,512.082833 811.18404,505.696507 787.40798,497.834911 C764.116463,489.973316 743.737778,479.657586 726.269141,466.884933 C708.800503,454.112281 695.698329,437.901052 685.996315,418.254035 C676.288732,398.60144 671.437725,375.02502 671.437725,347.022791 L671.437725,342.111734 C671.437725,319.020563 676.288732,297.40745 685.508987,277.757644 C694.729242,258.106723 707.831416,240.914119 724.812725,226.176765 C741.794034,211.439689 761.69096,200.140911 785.464235,192.280989 C809.243081,184.421067 835.444644,180 865.046369,180 C898.039899,180 927.154295,184.912451 952.871315,194.246249 C978.588335,203.579767 999.938892,216.352141 1017.40475,232.563091 C1034.87338,248.774599 1046.51914,267.933299 1056.70848,288.564201 C1069.32611,313.618679 1069.81066,364.706501 1069.81066,364.706501 L965.001617,363.724847 Z" id="Path"></path>
        </g>
    </g>
</svg>