<svg width="133" height="35" viewBox="0 0 133 35" fill="none" xmlns="http://www.w3.org/2000/svg">
<g clip-path="url(#clip0_13_66)">
<path d="M0 0V34.1026H31.5733V30.2801H3.78114V3.82245H31.5733V0H0Z" fill="white"/>
<path d="M54.3301 15.2193L59.6445 6.88742H64.0356L57.7279 16.7871V17.3155L64.384 27.1975H59.8188L54.3301 18.8832V15.2193Z" fill="white"/>
<path d="M76.982 18.8832H82.0351L79.7699 8.80749H79.2471L76.982 18.8832ZM82.8889 22.7056H76.1281L75.1175 27.1975H71.1621L75.9539 6.88742H83.0631L87.8551 27.1975H83.8995L82.8889 22.7056Z" fill="white"/>
<path d="M97.8916 6.88742H101.673V23.5511H110.803V27.1975H97.8916V6.88742Z" fill="white"/>
<path d="M34.7099 13.1055C34.7099 12.2952 34.3963 11.5906 33.7689 10.9918C33.1417 10.3928 32.2705 10.0933 31.1378 10.0933C30.1795 10.0933 29.4302 10.2871 28.8727 10.6923C28.3151 11.0974 28.0363 11.6259 28.0363 12.2952C28.0363 12.6475 28.106 12.9646 28.2453 13.2464C28.3847 13.5283 28.6113 13.7749 28.9423 14.0039C29.2734 14.2329 29.709 14.4267 30.2666 14.6028C30.8068 14.7789 31.5038 14.9375 32.3401 15.096C34.4485 15.4836 36.0516 16.1353 37.1668 17.0336C38.2819 17.9496 38.8395 19.2884 38.8395 21.0674V21.4198C38.8395 22.371 38.6653 23.2165 38.3342 23.9916C38.0031 24.749 37.5153 25.4008 36.888 25.9468C36.2606 26.4929 35.494 26.898 34.5879 27.1975C33.6818 27.4793 32.6712 27.6378 31.5386 27.6378C30.2143 27.6378 29.0643 27.4441 28.0537 27.0742C27.0431 26.7043 26.2067 26.1758 25.5445 25.5064C24.8824 24.8371 24.3597 24.062 24.0286 23.1636C23.6801 22.2653 23.5059 21.2789 23.5059 20.222V20.0458H27.287C27.287 21.2612 27.6355 22.2301 28.3325 22.9699C29.0295 23.6921 30.1098 24.062 31.5909 24.062C32.7409 24.062 33.5947 23.8154 34.1523 23.3046C34.7099 22.7937 34.9887 22.1949 34.9887 21.5079C34.9887 21.1732 34.9364 20.8737 34.8144 20.5567C34.6924 20.2572 34.5008 19.993 34.2046 19.7464C33.9258 19.4998 33.525 19.2884 33.0197 19.0946C32.5144 18.9008 31.8871 18.7423 31.1205 18.6014C30.1098 18.4253 29.1863 18.1963 28.3325 17.9144C27.4961 17.6325 26.7643 17.2626 26.137 16.8046C25.5097 16.3466 25.0392 15.7653 24.6908 15.0608C24.3422 14.3561 24.168 13.5107 24.168 12.5066V12.3305C24.168 11.5025 24.3422 10.7275 24.6733 10.0229C25.0044 9.31826 25.4749 8.70177 26.0847 8.17332C26.6945 7.64488 27.409 7.23973 28.2627 6.95789C29.1166 6.67605 30.0575 6.51752 31.1205 6.51752C32.3053 6.51752 33.3508 6.69367 34.2743 7.02836C35.1978 7.36304 35.9645 7.82103 36.5917 8.40232C37.219 8.98363 37.6372 9.67062 38.0031 10.4104C38.4562 11.3088 38.4736 13.1407 38.4736 13.1407L34.7099 13.1055Z" fill="white"/>
<path d="M119.62 6.88742V27.1975H132.654V23.5511H123.418V10.5513H132.654V6.88742H119.62Z" fill="white"/>
<path d="M51.6293 6.88742H47.8481V27.1975H51.6293V6.88742Z" fill="white"/>
<path d="M129.761 15.2194H126.137V18.8833H129.761V15.2194Z" fill="white"/>
</g>
<defs>
<clipPath id="clip0_13_66">
<rect width="133" height="34.1026" fill="white"/>
</clipPath>
</defs>
</svg>
